<?xml version="1.0" standalone="no"?>
<!DOCTYPE svg PUBLIC "-//W3C//DTD SVG 20010904//EN"
 "http://www.w3.org/TR/2001/REC-SVG-20010904/DTD/svg10.dtd">
<svg version="1.0" xmlns="http://www.w3.org/2000/svg"
 width="984.000000pt" height="655.000000pt" viewBox="0 0 984.000000 655.000000"
 preserveAspectRatio="xMidYMid meet">

<g transform="translate(0.000000,655.000000) scale(0.100000,-0.100000)"
fill="#000000" stroke="none">
<path d="M4450 6350 c-36 -4 -83 -13 -105 -19 -22 -6 -59 -11 -82 -11 -23 0
-54 -6 -70 -14 -51 -26 -127 -46 -171 -46 -36 0 -44 -4 -52 -24 -11 -30 -27
-41 -43 -28 -21 16 -66 8 -83 -16 -11 -15 -25 -22 -50 -22 -27 0 -36 -5 -43
-24 -10 -24 -30 -36 -62 -36 -23 0 -174 -96 -203 -129 -11 -11 -27 -21 -37
-21 -9 0 -19 -3 -21 -7 -1 -5 -23 -21 -48 -38 -63 -43 -216 -195 -225 -225 -4
-14 -15 -33 -24 -44 -15 -17 -33 -18 -236 -16 -121 2 -226 2 -233 1 -11 -1
-13 -35 -11 -164 1 -90 -1 -169 -5 -175 -4 -6 -23 -14 -43 -18 -21 -4 -49 -18
-63 -31 -14 -13 -41 -34 -60 -45 -19 -12 -37 -25 -40 -28 -3 -4 -32 -26 -65
-50 -77 -55 -308 -286 -326 -325 l-14 -30 -278 -3 -277 -2 0 -234 0 -233 202
-6 c329 -11 6443 -8 6453 2 6 6 8 100 5 238 l-5 228 -280 5 c-154 3 -281 7
-282 8 -2 1 -3 10 -3 20 0 60 -85 156 -260 294 -100 79 -262 188 -279 188 -5
0 -17 7 -25 16 -13 13 -16 44 -16 180 l0 164 -254 0 c-140 0 -257 4 -260 8 -3
5 -6 27 -7 50 -2 23 -6 42 -10 42 -4 0 -10 9 -14 19 -5 16 -129 118 -219 181
-11 8 -56 41 -99 73 -77 58 -303 181 -362 197 -40 11 -93 29 -130 45 -90 39
-148 45 -164 18 -9 -17 -51 -18 -593 -24 -321 -3 -589 -3 -596 -1 -22 8 -36
43 -21 53 8 5 275 9 594 9 342 0 575 4 570 9 -6 5 -28 11 -50 14 -22 3 -60 11
-85 17 -53 13 -738 22 -840 10z m-910 -427 c0 -10 -26 -33 -115 -105 -39 -31
-119 -106 -177 -167 l-108 -111 -190 0 -190 0 0 -112 c0 -84 -5 -125 -18 -160
-10 -26 -21 -50 -24 -54 -14 -14 -19 47 -16 216 l3 175 210 1 c116 0 220 4
232 8 13 4 27 21 34 43 13 41 144 183 202 220 62 39 157 67 157 46z m1327
-298 c19 -8 42 -15 50 -15 17 0 93 -79 93 -96 0 -7 15 -24 33 -38 17 -15 37
-31 44 -36 7 -6 15 -10 19 -10 5 0 25 -18 46 -41 l38 -41 0 -93 c0 -52 -4 -97
-10 -100 -18 -11 -11 -45 13 -54 12 -5 30 -18 40 -28 24 -28 7 -39 -68 -46
-114 -11 -147 -22 -182 -64 -18 -21 -33 -43 -33 -50 0 -7 -9 -17 -19 -23 -25
-13 -155 -13 -202 0 -36 10 -79 56 -79 85 0 22 -51 38 -192 60 -47 7 -51 15
-31 55 12 24 16 64 17 153 l1 121 45 33 c68 49 159 136 160 152 0 17 23 36 75
61 69 32 94 35 142 15z m2085 -185 c4 -91 9 -178 10 -195 4 -40 -23 -44 -56
-8 -25 27 -26 31 -26 165 l0 136 -192 4 c-196 3 -203 4 -258 46 -20 15 59 21
270 19 l245 -2 7 -165z m-2694 25 c66 -34 112 -69 133 -105 23 -38 26 -155 5
-186 -8 -11 -16 -31 -18 -44 -5 -40 -20 -30 -65 45 -46 76 -146 185 -169 185
-8 0 -22 9 -31 19 -9 11 -20 18 -25 15 -13 -9 -9 -24 7 -24 8 0 15 -4 15 -9 0
-5 26 -35 58 -68 65 -65 125 -150 117 -164 -4 -5 -17 -9 -30 -9 -13 0 -35 -4
-48 -9 -18 -7 -31 -5 -48 7 -25 16 -91 83 -144 144 -42 47 -74 65 -126 69
l-44 4 0 -53 c1 -32 6 -56 14 -61 7 -5 11 -21 9 -37 -2 -24 -8 -30 -34 -32
-16 -2 -42 2 -57 7 -23 9 -27 16 -27 49 0 22 9 59 19 83 21 47 133 169 155
169 8 0 19 7 26 14 27 34 236 27 308 -9z m1443 9 c8 -8 21 -14 28 -14 15 0
151 -135 151 -151 0 -6 7 -17 15 -25 23 -23 19 -84 -7 -111 -21 -22 -59 -30
-92 -17 -20 8 -21 44 -1 70 8 10 15 41 15 68 0 45 -1 48 -22 42 -13 -3 -36 -6
-51 -6 -23 0 -49 -21 -130 -104 -89 -91 -107 -104 -144 -110 -39 -6 -93 6 -93
20 0 3 14 26 30 51 17 24 30 46 30 48 0 9 101 105 110 105 6 0 10 5 10 11 0 7
8 18 18 25 16 13 16 13 0 14 -10 0 -18 -4 -18 -9 0 -5 -12 -12 -26 -15 -31 -8
-154 -130 -154 -152 0 -8 -7 -17 -15 -20 -8 -4 -15 -11 -15 -16 0 -13 -39 -68
-49 -68 -17 0 -51 108 -51 162 0 48 5 63 33 100 18 23 43 48 56 54 12 7 28 17
34 23 6 6 19 11 28 11 9 0 22 7 29 14 22 28 249 28 281 0z m2399 -955 c0 -147
-3 -189 -14 -198 -17 -14 -6517 -14 -6553 0 -23 8 -23 10 -23 204 0 107 3 195
8 195 4 1 140 2 303 3 l296 2 -14 -22 c-9 -14 -29 -25 -51 -28 -21 -4 -50 -11
-65 -17 -19 -8 -93 -9 -223 -5 l-194 7 0 -140 0 -140 3224 0 c1773 0 3231 3
3240 6 13 5 16 26 16 127 0 147 -6 158 -78 146 -90 -15 -295 -10 -353 8 -52
16 -89 38 -89 54 0 4 105 5 233 2 131 -3 249 -1 272 5 63 14 65 7 65 -209z"/>
<path d="M4732 5492 c-20 -15 -23 -26 -20 -68 l3 -49 95 -3 95 -3 18 30 c28
48 22 73 -22 94 -50 23 -138 22 -169 -1z"/>
<path d="M4564 5335 c-3 -14 -4 -55 -2 -92 4 -57 8 -69 32 -89 41 -36 63 -31
87 21 l21 45 -20 43 c-22 45 -73 97 -97 97 -8 0 -17 -11 -21 -25z"/>
<path d="M5028 5346 c-10 -7 -18 -18 -18 -25 0 -6 -7 -14 -15 -17 -8 -4 -15
-17 -15 -31 0 -13 -7 -38 -16 -55 -20 -39 -11 -76 21 -84 35 -9 72 23 78 66 5
43 -3 160 -12 160 -3 0 -14 -7 -23 -14z"/>
<path d="M4778 5298 c-32 -37 -34 -50 -12 -83 11 -17 25 -25 46 -25 34 0 78
35 78 63 0 20 -55 77 -74 77 -6 0 -23 -15 -38 -32z"/>
<path d="M4741 5122 c-29 -9 -44 -52 -31 -88 8 -19 17 -24 44 -24 19 0 38 -4
41 -10 3 -5 17 -10 30 -10 13 0 27 5 30 10 3 6 16 10 29 10 45 0 71 55 43 91
-14 19 -145 33 -186 21z"/>
<path d="M5319 3892 c-39 -40 -132 -173 -159 -227 -5 -11 -15 -29 -22 -40 -23
-40 -28 -50 -33 -62 -3 -7 -7 -19 -10 -25 -3 -7 -9 -20 -14 -28 -27 -49 -41
-80 -41 -98 0 -11 -7 -25 -15 -32 -8 -7 -15 -22 -15 -34 0 -12 -7 -31 -15 -42
-8 -10 -15 -30 -15 -44 0 -14 -7 -34 -15 -44 -8 -11 -15 -31 -15 -45 0 -14 -7
-35 -15 -45 -8 -11 -15 -28 -15 -37 0 -24 -56 -69 -85 -69 -13 0 -36 -5 -51
-10 -32 -13 -56 2 -36 22 7 7 12 20 12 29 0 10 9 34 21 53 12 20 18 36 15 36
-4 0 0 13 9 30 8 16 15 55 15 88 0 81 -24 112 -85 112 -55 0 -93 -22 -125 -72
-13 -21 -35 -41 -48 -45 -25 -6 -23 -27 6 -73 22 -33 73 -137 88 -177 11 -31
10 -34 -18 -55 -16 -13 -44 -35 -61 -50 -40 -35 -76 -35 -100 -3 -14 20 -17
39 -14 97 3 40 12 86 20 102 9 16 14 33 11 37 -3 5 7 26 21 49 23 36 24 40 7
40 -47 0 -142 -121 -142 -181 0 -14 -6 -34 -14 -45 -12 -17 -11 -27 6 -79 26
-76 50 -99 100 -98 42 1 116 32 138 58 7 8 31 30 53 48 39 31 62 36 204 49 7
1 10 5 6 11 -3 5 5 7 18 5 13 -1 25 -10 26 -18 9 -70 17 -93 44 -120 50 -49
112 -40 213 34 40 29 49 28 85 -9 64 -66 82 -69 157 -29 63 33 70 39 105 91
28 40 29 43 10 43 -14 0 -19 -5 -15 -15 4 -9 0 -15 -10 -15 -9 0 -16 -3 -16
-7 0 -14 -66 -53 -88 -53 -11 0 -32 5 -46 11 -23 11 -25 17 -25 74 0 39 6 70
14 81 8 11 15 25 15 33 1 45 150 231 186 231 6 0 17 6 23 14 6 7 25 16 41 20
21 4 30 11 30 26 0 11 -3 20 -6 20 -12 0 -109 -34 -114 -40 -3 -3 -22 -16 -43
-29 -21 -13 -53 -37 -71 -55 -38 -35 -120 -152 -130 -184 -4 -12 -12 -22 -17
-22 -5 0 -9 -8 -9 -19 0 -10 -7 -24 -15 -31 -8 -7 -15 -19 -15 -26 0 -8 -4
-14 -10 -14 -5 0 -10 -6 -10 -12 0 -12 -37 -55 -75 -86 -8 -7 -30 -12 -48 -10
-40 4 -67 53 -62 113 10 131 15 145 76 209 70 75 83 91 146 186 52 78 137 240
127 240 -4 0 1 11 9 24 9 13 17 34 19 47 2 13 7 29 10 35 15 24 19 90 7 119
-7 17 -13 32 -14 35 -17 50 -29 51 -76 2z m49 -136 c2 -31 -2 -56 -12 -72 -9
-13 -16 -34 -16 -47 0 -14 -7 -30 -15 -37 -8 -7 -15 -23 -15 -37 0 -13 -7 -26
-15 -29 -8 -4 -15 -14 -15 -24 0 -10 -7 -23 -15 -30 -8 -7 -15 -20 -15 -29 0
-9 -14 -30 -30 -48 -17 -18 -30 -35 -30 -39 0 -8 -56 -80 -87 -112 -39 -41
-58 -4 -28 57 8 17 22 45 30 62 8 17 15 35 15 41 0 12 88 191 115 233 76 121
109 165 119 162 6 -2 12 -25 14 -51z m-596 -432 c10 -54 -2 -159 -21 -197 -24
-46 -52 -87 -60 -87 -4 0 -15 17 -24 38 -19 43 -25 212 -7 212 6 0 10 6 10 13
1 15 70 69 84 64 6 -2 14 -21 18 -43z"/>
<path d="M1170 3901 c-25 -9 -60 -31 -79 -48 -29 -28 -31 -33 -16 -39 19 -8
307 3 342 12 28 8 42 -30 19 -55 -9 -10 -16 -24 -16 -32 0 -8 -7 -23 -15 -33
-8 -11 -15 -30 -15 -42 0 -12 -7 -27 -15 -34 -8 -7 -15 -25 -15 -40 0 -16 -7
-30 -15 -34 -9 -3 -15 -18 -15 -34 0 -16 -7 -35 -15 -42 -8 -7 -15 -23 -15
-37 0 -13 -7 -31 -15 -39 -8 -9 -15 -28 -15 -43 0 -16 -7 -34 -15 -41 -8 -7
-15 -25 -15 -40 0 -15 -7 -33 -15 -40 -8 -7 -15 -27 -15 -45 0 -19 -5 -35 -11
-37 -6 -2 -15 -21 -19 -43 -16 -76 -32 -130 -46 -157 -8 -14 -14 -55 -14 -90
0 -61 2 -67 35 -96 19 -18 39 -32 44 -32 14 0 31 58 31 106 0 24 4 45 9 48 5
4 12 30 16 59 4 28 13 70 20 92 8 22 16 54 18 70 3 17 10 42 15 56 6 14 13 39
16 55 3 16 17 63 31 104 14 41 27 85 29 97 3 12 9 30 15 40 5 11 12 30 14 44
2 13 9 35 14 49 33 78 52 130 47 130 -3 0 2 10 10 22 9 12 16 32 16 44 0 48
53 69 205 80 66 5 100 12 125 28 l35 21 -70 7 c-38 3 -83 11 -98 17 -18 7
-111 11 -255 10 -182 -1 -236 -5 -272 -18z"/>
<path d="M4100 3910 c-8 -5 -35 -18 -59 -30 -24 -11 -50 -28 -59 -36 -8 -9
-27 -23 -41 -32 -28 -18 -34 -25 -109 -117 -45 -55 -132 -188 -132 -201 0 -6
-12 -35 -41 -99 -42 -96 -64 -367 -35 -430 9 -18 16 -38 16 -44 0 -42 107
-148 158 -157 20 -4 45 -11 55 -16 25 -13 140 18 170 46 13 12 42 36 65 54 38
30 43 32 48 15 3 -10 10 -25 15 -33 5 -8 13 -25 18 -37 12 -26 30 -38 41 -27
4 5 10 53 12 108 3 54 9 101 14 105 5 3 11 28 12 55 2 26 10 63 18 82 8 18 14
46 14 61 1 15 7 39 15 53 12 22 11 27 -2 43 -9 9 -28 17 -42 17 -14 0 -39 7
-56 16 -46 25 -161 22 -204 -4 -43 -26 -37 -29 100 -45 96 -11 104 -14 107
-35 8 -51 -57 -241 -103 -301 -31 -41 -94 -99 -119 -109 -35 -16 -103 -7 -144
18 -36 22 -84 83 -88 113 -2 12 -8 51 -14 87 -13 76 -13 69 0 145 6 33 12 74
14 91 2 17 11 44 19 61 9 17 14 33 11 35 -5 6 37 100 54 120 5 7 11 18 11 23
2 23 13 45 22 45 5 0 8 3 7 8 -4 14 14 52 24 52 6 0 8 3 5 7 -4 3 2 13 13 20
11 8 18 18 15 23 -3 4 10 24 29 43 19 20 32 37 30 40 -6 5 86 82 128 106 23
14 56 21 103 23 l70 3 3 -48 c3 -43 -17 -123 -39 -152 -4 -5 -21 -36 -38 -67
l-31 -58 29 0 c16 0 36 7 44 15 8 8 17 12 19 9 3 -2 18 15 33 38 36 55 57 132
44 165 -5 14 -7 28 -5 31 7 7 -20 57 -48 86 -21 24 -30 26 -102 25 -44 0 -86
-4 -94 -9z"/>
<path d="M5972 3887 c-18 -18 -32 -38 -32 -44 0 -6 -7 -16 -15 -23 -8 -7 -15
-20 -15 -30 0 -10 -7 -23 -15 -30 -8 -7 -15 -20 -15 -30 0 -10 -7 -23 -15 -30
-8 -7 -15 -23 -15 -35 0 -12 -7 -28 -15 -35 -8 -7 -15 -23 -15 -35 0 -12 -7
-28 -15 -35 -8 -7 -15 -23 -15 -36 0 -12 -7 -29 -15 -38 -8 -8 -15 -24 -15
-37 0 -26 -35 -85 -55 -92 -11 -5 -12 -13 -5 -37 5 -17 6 -39 3 -48 -10 -33
-48 -102 -55 -102 -5 0 -8 -8 -8 -19 0 -10 -7 -24 -15 -31 -8 -7 -15 -19 -15
-26 0 -8 -4 -14 -9 -14 -15 0 -20 -38 -5 -44 9 -4 14 -22 14 -56 0 -54 25
-113 59 -136 16 -12 29 -12 73 -2 45 11 63 23 125 84 54 54 81 73 109 78 45 9
60 -8 39 -41 -8 -12 -15 -31 -15 -41 0 -10 -7 -27 -15 -38 -25 -33 -18 -70 19
-109 41 -42 54 -44 62 -7 3 15 8 34 11 42 8 21 10 28 27 85 8 28 22 75 31 105
9 30 20 73 26 95 6 22 14 47 19 56 5 9 14 35 20 58 6 22 15 41 20 41 5 0 34
-51 65 -112 31 -62 65 -126 76 -143 10 -16 23 -39 29 -50 15 -29 34 -58 46
-70 5 -5 29 -35 52 -65 49 -65 92 -106 110 -104 6 1 30 2 52 3 22 0 40 6 40
11 0 10 -44 62 -111 129 -44 46 -180 224 -209 276 -10 18 -24 43 -32 56 -7 13
-19 31 -26 40 -24 31 -52 93 -44 100 4 4 31 10 60 13 30 4 62 11 72 16 10 6
33 10 51 10 47 0 157 39 207 73 46 31 95 91 118 146 16 38 19 127 4 136 -5 3
-10 14 -10 25 0 45 -143 163 -197 163 -7 0 -13 4 -13 9 0 14 -268 4 -320 -12
-56 -17 -143 -72 -128 -81 11 -7 69 9 136 37 18 8 44 14 57 14 22 0 25 -5 25
-34 0 -18 -7 -39 -15 -46 -8 -7 -15 -23 -15 -35 0 -12 -7 -28 -15 -35 -8 -7
-15 -22 -15 -34 0 -12 -7 -31 -15 -42 -8 -10 -15 -31 -15 -45 0 -15 -7 -29
-15 -33 -9 -3 -15 -18 -15 -34 0 -16 -7 -35 -15 -42 -8 -7 -15 -22 -15 -34 0
-12 -7 -31 -15 -42 -8 -10 -15 -28 -15 -40 0 -11 -7 -29 -15 -40 -8 -10 -15
-30 -15 -44 0 -14 -7 -38 -15 -54 -8 -15 -15 -39 -15 -53 0 -38 -38 -80 -79
-89 -43 -9 -53 -10 -68 -12 -6 -1 -9 -11 -6 -22 6 -23 -31 -70 -54 -70 -8 0
-12 -4 -9 -8 6 -10 -30 -38 -86 -67 -30 -16 -39 -17 -52 -6 -21 18 -22 135 -1
184 8 20 15 52 15 71 0 19 4 37 9 40 4 3 11 20 15 38 3 18 12 47 20 63 31 64
46 104 46 118 0 8 7 20 15 27 8 7 15 17 15 24 0 6 14 40 31 76 47 98 76 161
92 200 36 87 57 146 57 158 0 24 -46 12 -78 -21z m579 -3 c6 -8 21 -14 34 -14
38 0 93 -65 105 -126 14 -64 4 -154 -19 -185 -68 -91 -162 -157 -251 -174 -19
-4 -41 -12 -48 -18 -17 -13 -125 -18 -133 -5 -6 10 12 72 24 84 4 4 7 18 7 31
0 13 7 37 15 52 8 16 17 47 21 70 4 23 10 41 15 41 5 0 9 8 9 18 0 10 6 27 14
38 8 11 17 37 21 57 4 20 11 37 16 37 5 0 9 9 9 19 0 11 7 27 16 36 9 8 13 22
10 31 -3 9 2 18 14 22 29 11 108 2 121 -14z"/>
<path d="M2940 3900 c-19 -4 -44 -12 -55 -19 -18 -11 -72 -79 -85 -106 -3 -5
-18 -29 -33 -53 -29 -44 -52 -89 -95 -182 -13 -30 -31 -68 -38 -83 -8 -16 -14
-35 -14 -42 0 -14 -20 -66 -46 -118 -8 -16 -14 -41 -14 -55 -1 -15 -7 -38 -15
-52 -8 -14 -14 -37 -15 -51 0 -14 -7 -34 -15 -45 -8 -10 -15 -24 -15 -31 -1
-49 -150 -193 -200 -193 -10 0 -22 -4 -25 -10 -18 -29 -144 8 -159 46 -5 13 7
119 19 159 1 6 6 25 10 43 4 17 12 32 17 32 5 0 7 4 4 9 -7 11 63 107 95 129
37 26 92 42 107 30 16 -14 15 -50 -3 -74 -18 -24 -20 -83 -2 -80 7 1 26 12 43
25 26 21 29 28 29 81 -1 65 -18 95 -64 105 -40 9 -127 -12 -157 -37 -77 -64
-104 -92 -104 -104 0 -8 -7 -17 -15 -20 -8 -4 -15 -14 -15 -24 0 -10 -7 -23
-15 -30 -8 -7 -15 -21 -15 -31 0 -10 -5 -21 -10 -24 -6 -4 -17 -22 -24 -40
-19 -44 -121 -146 -172 -170 -57 -27 -154 -26 -191 1 -25 19 -28 27 -28 80 l0
58 40 8 c22 5 44 13 49 18 6 6 18 10 29 10 49 0 181 101 213 165 19 35 20 131
2 153 -23 27 -54 32 -115 15 -32 -9 -65 -22 -74 -30 -8 -7 -20 -13 -26 -13
-15 0 -94 -82 -128 -131 -17 -24 -33 -45 -37 -47 -5 -2 -8 -12 -8 -22 0 -9 -6
-23 -14 -29 -8 -6 -17 -36 -21 -66 -3 -30 -10 -57 -14 -60 -10 -5 18 -92 39
-121 32 -43 61 -54 144 -54 89 0 151 23 218 82 91 81 83 80 113 8 24 -56 47
-89 62 -90 6 0 13 -6 16 -12 2 -9 26 -13 73 -12 57 0 79 6 123 29 29 16 56 35
58 42 3 7 9 11 13 8 4 -3 28 17 54 44 44 48 46 49 66 33 14 -12 23 -34 27 -70
3 -32 12 -56 20 -59 20 -8 60 33 85 88 11 27 26 45 31 42 6 -3 7 -1 3 5 -10
16 79 193 112 225 24 22 57 32 100 28 17 -1 16 -143 -3 -205 -29 -97 -11 -147
58 -160 61 -11 113 9 183 75 35 32 60 59 56 59 -4 1 2 8 13 18 18 15 20 23 16
56 0 6 -12 -6 -26 -25 -64 -86 -176 -169 -201 -149 -17 15 -16 105 1 147 8 19
15 57 15 84 0 26 4 50 9 53 11 7 -10 102 -30 134 -17 27 -22 27 -96 5 -94 -29
-162 -110 -231 -273 -12 -30 -15 -32 -24 -16 -21 37 9 206 43 244 128 142 203
230 208 246 2 6 13 24 23 39 55 77 116 316 90 352 -4 7 -22 8 -42 5z m0 -110
c9 -16 7 -28 -4 -52 -9 -17 -16 -42 -16 -56 0 -14 -13 -47 -30 -74 -16 -26
-30 -52 -30 -56 0 -10 -74 -118 -109 -157 -18 -21 -36 -32 -45 -29 -21 8 -26
52 -10 97 8 22 14 48 14 58 0 10 6 22 13 26 7 4 32 37 54 73 23 36 46 70 51
76 6 6 17 25 26 42 13 25 60 72 72 72 2 0 8 -9 14 -20z m-1015 -476 c-8 -46
-34 -95 -67 -127 -39 -38 -127 -93 -163 -101 -16 -4 -38 -9 -47 -12 -61 -18
57 174 150 246 77 59 139 57 127 -6z"/>
<path d="M7039 3621 c-8 -2 -16 -7 -19 -10 -3 -3 -14 -11 -24 -17 -59 -32 -32
-83 42 -80 53 3 82 28 82 73 0 18 -3 34 -7 34 -23 4 -62 4 -74 0z"/>
<path d="M8323 3448 c-13 -13 -23 -34 -23 -46 0 -11 -4 -23 -9 -27 -6 -3 -13
-27 -16 -53 -3 -26 -13 -59 -21 -74 -8 -14 -14 -38 -14 -52 0 -14 -3 -26 -8
-26 -4 0 -18 -24 -31 -52 -14 -29 -30 -57 -36 -63 -6 -5 -24 -30 -39 -53 -15
-24 -40 -51 -57 -60 -16 -10 -29 -20 -29 -24 0 -3 -16 -16 -35 -28 -49 -30
-173 -34 -204 -6 -11 10 -19 21 -18 25 1 3 -7 19 -18 35 -17 26 -17 31 -4 55
8 14 24 27 34 30 48 8 59 41 20 59 -21 10 -23 15 -15 37 17 45 131 183 164
199 17 8 45 16 61 18 28 3 30 1 33 -33 2 -23 -2 -40 -12 -49 -9 -7 -16 -18
-16 -24 -1 -24 -87 -103 -125 -116 l-40 -13 44 -19 43 -18 32 26 c69 59 102
92 121 125 10 19 18 34 16 34 -2 0 0 16 4 35 9 50 -8 86 -50 105 -27 14 -41
15 -63 7 -15 -6 -39 -13 -55 -16 -57 -13 -185 -140 -231 -230 -20 -39 -39 -72
-43 -75 -5 -3 -17 -24 -28 -45 -25 -48 -53 -55 -87 -21 -21 21 -25 34 -26 100
-1 50 4 90 14 113 16 39 21 108 9 120 -4 4 -19 7 -33 7 -23 0 -29 -7 -44 -50
-10 -27 -18 -59 -18 -70 0 -11 -9 -38 -20 -60 -11 -22 -19 -48 -20 -57 0 -10
-4 -18 -10 -18 -5 0 -12 -11 -16 -25 -3 -14 -10 -25 -15 -25 -5 0 -9 -7 -9
-15 0 -8 -9 -24 -20 -35 -11 -11 -20 -23 -20 -27 0 -15 -103 -101 -115 -97
-17 7 -30 167 -22 276 5 83 8 79 -43 82 -15 1 -34 -48 -49 -134 -5 -24 -14
-46 -20 -48 -6 -2 -11 -12 -11 -22 0 -19 -93 -120 -110 -120 -5 0 -21 -5 -37
-12 -34 -14 -52 -11 -77 10 -31 28 -37 59 -21 99 8 19 15 43 15 52 0 13 71
169 111 243 12 24 11 68 -1 68 -35 0 -120 -74 -120 -104 0 -7 -7 -19 -15 -26
-8 -7 -15 -20 -15 -29 0 -10 -7 -26 -15 -37 -8 -10 -15 -30 -15 -44 0 -14 -7
-36 -16 -48 -11 -16 -15 -46 -15 -103 0 -90 11 -111 66 -135 48 -20 141 9 199
63 25 23 46 47 46 53 0 6 5 8 10 5 6 -3 10 -2 10 4 0 6 6 8 13 6 6 -3 21 -35
32 -71 11 -36 27 -70 37 -75 25 -14 65 -11 82 6 8 8 19 15 24 15 5 0 27 19 48
41 22 23 49 53 61 66 13 13 22 24 22 26 -2 10 15 36 21 32 4 -3 7 3 6 12 0 9
10 23 24 30 22 11 26 11 35 -4 6 -10 24 -32 42 -50 27 -29 38 -33 81 -33 l51
0 26 -52 c44 -87 55 -93 165 -93 103 0 173 22 203 65 7 11 16 17 19 15 7 -7
88 89 88 104 0 5 9 15 20 21 12 7 17 16 13 27 -4 11 -3 14 6 9 6 -4 11 -4 10
1 -3 19 14 52 24 46 5 -3 7 -1 4 4 -4 6 3 23 14 37 12 15 19 30 15 33 -3 4 -6
0 -6 -7 0 -7 -3 -10 -7 -7 -3 4 4 18 17 32 12 13 20 31 17 39 -4 9 6 25 25 41
l31 26 23 -28 c39 -47 32 -130 -24 -266 -7 -16 -12 -50 -12 -77 0 -44 4 -51
37 -79 42 -34 51 -36 102 -20 60 20 101 42 136 76 39 38 90 112 100 145 8 26
6 25 -55 -50 -45 -56 -102 -98 -158 -118 -29 -10 -34 -10 -43 7 -13 25 -10
109 6 134 11 19 18 46 32 122 9 53 -3 78 -72 154 -56 63 -64 77 -67 116 l-3
45 -22 -24z"/>
<path d="M5550 3010 c0 -5 5 -10 10 -10 6 0 10 5 10 10 0 6 -4 10 -10 10 -5 0
-10 -4 -10 -10z"/>
<path d="M4618 2983 c6 -2 18 -2 25 0 6 3 1 5 -13 5 -14 0 -19 -2 -12 -5z"/>
<path d="M1484 2297 c-2 -7 -3 -78 -2 -157 l3 -145 275 0 c175 0 278 -3 282
-10 4 -5 8 -24 8 -42 0 -54 162 -208 437 -416 44 -34 71 -47 95 -47 77 0 73
11 73 -198 l0 -187 185 -5 c102 -3 192 -9 201 -13 10 -5 19 -27 23 -57 6 -47
12 -55 157 -199 82 -82 159 -153 169 -156 11 -4 20 -11 20 -16 0 -5 5 -9 10
-9 12 0 73 -41 78 -52 2 -5 9 -8 16 -8 7 0 23 -11 35 -24 20 -22 132 -82 184
-100 11 -3 21 -15 24 -25 4 -16 10 -18 36 -10 35 10 57 -3 57 -32 0 -16 8 -19
50 -19 39 0 54 -5 74 -25 21 -21 28 -23 57 -15 22 7 45 6 66 -1 23 -7 43 -7
75 3 58 17 1198 15 1273 -2 93 -22 123 -23 147 -6 12 9 30 16 39 16 9 0 30 7
45 15 16 8 36 15 44 15 8 0 24 7 34 15 11 8 28 15 38 15 10 0 18 4 18 9 0 5
15 13 33 16 17 4 40 14 50 23 9 8 17 12 17 9 0 -9 100 46 160 88 27 19 50 33
50 29 0 -12 60 39 76 64 15 26 72 62 97 62 16 0 131 119 187 193 24 32 53 65
64 73 11 8 17 14 12 14 -4 0 2 12 13 26 12 15 21 33 21 40 0 7 10 20 22 28 18
13 52 16 165 16 84 0 144 4 148 10 3 6 15 10 25 10 33 0 40 33 40 199 l0 160
33 5 c17 3 46 7 62 8 25 3 31 8 33 32 4 35 21 54 43 49 10 -3 33 3 53 12 43
21 371 344 381 376 14 44 17 44 279 41 204 -2 253 0 261 11 6 9 8 68 5 158
l-5 144 -3323 2 c-2708 2 -3324 1 -3328 -10z m2996 -30 c1532 0 2968 3 3191 8
l407 8 11 -22 c7 -13 11 -59 9 -119 l-3 -97 -247 -5 c-135 -3 -248 -7 -251
-10 -2 -3 -15 -27 -28 -55 -26 -54 -147 -181 -188 -196 -15 -6 -28 -6 -34 0
-7 7 -5 12 6 17 9 3 17 10 17 15 0 15 72 108 147 187 57 62 76 76 113 84 74
16 215 21 301 9 93 -13 103 -8 114 45 5 27 2 41 -11 55 -17 19 -84 19 -3238
17 l-3221 -3 -3 -46 c-3 -45 -2 -47 33 -61 28 -11 52 -12 103 -5 106 14 275 1
382 -30 13 -4 13 -5 0 -13 -8 -6 -141 -10 -297 -10 l-283 0 0 106 c0 134 3
138 110 128 41 -4 1328 -8 2860 -7z m473 -577 c15 -14 27 -32 27 -40 1 -26 51
-53 104 -57 28 -3 71 -12 96 -20 46 -17 130 -87 130 -110 0 -7 4 -13 8 -13 5
0 30 -30 57 -67 57 -77 78 -100 122 -130 38 -27 53 -29 53 -8 0 8 -4 15 -8 15
-14 0 -90 78 -123 127 -18 27 -40 53 -48 59 -12 10 -8 15 27 33 23 11 47 21
55 21 29 0 76 -32 122 -83 26 -28 60 -67 76 -84 32 -35 111 -76 137 -71 13 3
18 17 20 67 2 35 -2 77 -7 93 -6 17 -8 34 -6 39 9 13 104 -32 111 -53 7 -24
-4 -88 -15 -88 -5 0 -12 -11 -15 -25 -4 -14 -11 -25 -16 -25 -6 0 -10 -6 -10
-12 0 -19 -110 -118 -130 -118 -10 0 -23 -7 -30 -15 -18 -21 -218 -22 -246 0
-10 8 -29 15 -40 15 -12 0 -27 7 -34 15 -7 8 -18 15 -25 15 -8 0 -34 24 -59
52 l-46 53 0 83 c0 80 -1 85 -31 114 -21 21 -33 28 -41 20 -6 -6 -7 -16 0 -28
11 -21 22 -95 25 -167 1 -42 -2 -51 -28 -72 -17 -13 -34 -25 -40 -25 -20 -1
-53 -37 -57 -61 -2 -16 -11 -25 -25 -27 -23 -3 -93 -79 -93 -101 0 -24 -54
-33 -158 -26 -92 7 -104 10 -113 29 -5 11 -13 29 -19 39 -5 9 -14 25 -19 35
-4 9 -22 18 -39 20 -29 3 -31 6 -25 33 4 22 2 29 -10 29 -29 0 -86 41 -108 78
-19 32 -21 47 -16 120 3 50 1 85 -5 88 -19 12 -28 -21 -28 -102 0 -60 -4 -85
-15 -94 -8 -7 -15 -18 -15 -25 0 -13 -62 -65 -78 -65 -6 0 -12 -7 -16 -15 -3
-8 -16 -15 -28 -15 -13 -1 -34 -7 -48 -15 -17 -9 -56 -14 -117 -15 -88 0 -109
5 -173 42 -8 5 -22 11 -30 14 -18 7 -102 107 -112 133 -4 11 -11 22 -17 26
-12 7 -15 64 -5 90 6 16 64 45 89 45 20 0 23 -30 8 -68 -8 -19 -13 -55 -11
-80 3 -40 6 -47 26 -50 34 -5 97 32 145 84 89 96 118 124 131 124 8 0 19 7 26
15 7 9 29 15 51 15 39 0 39 0 39 -39 0 -22 -6 -44 -15 -51 -8 -7 -15 -19 -15
-27 0 -8 -29 -43 -65 -78 -36 -36 -65 -67 -65 -69 0 -18 78 19 98 47 8 10 25
30 38 44 13 14 24 29 24 32 0 3 18 26 40 51 22 25 40 48 40 53 0 4 18 25 41
46 45 44 113 81 150 81 64 0 101 13 112 39 34 78 62 90 203 88 72 -2 84 -5
107 -27z m-1848 -580 c8 0 15 -5 15 -11 0 -6 14 -30 31 -53 45 -58 307 -314
330 -321 10 -4 19 -10 19 -15 0 -4 9 -10 21 -13 32 -9 17 -32 -23 -35 -22 -2
-39 3 -48 12 -7 9 -20 16 -29 16 -16 0 -71 41 -125 96 -87 86 -175 182 -185
202 -17 32 -41 113 -41 137 1 18 1 19 11 3 5 -10 17 -18 24 -18z"/>
<path d="M4762 1599 c-23 -4 -46 -10 -50 -13 -4 -2 -5 -27 -4 -54 3 -41 8 -51
25 -56 32 -9 170 -7 184 2 7 4 14 30 15 56 l3 48 -45 14 c-50 15 -66 16 -128
3z"/>
<path d="M4580 1436 c-28 -63 -25 -160 5 -182 16 -12 22 -10 48 19 16 17 37
51 48 74 17 39 17 44 2 75 -18 35 -38 54 -64 61 -12 3 -23 -10 -39 -47z"/>
<path d="M4986 1474 c-3 -9 -6 -24 -6 -35 0 -11 -6 -28 -12 -39 -10 -16 -10
-24 0 -40 6 -11 12 -28 12 -37 1 -10 11 -31 24 -46 l22 -28 20 22 c26 28 26
156 0 171 -9 5 -16 18 -16 28 0 24 -35 27 -44 4z"/>
<path d="M4775 1398 c-6 -16 -9 -47 -7 -75 2 -20 8 -23 43 -23 30 0 46 6 60
23 24 29 24 39 -4 65 -26 24 -85 30 -92 10z"/>
<path d="M4055 1221 c-6 -11 9 -23 19 -14 9 9 7 23 -3 23 -6 0 -12 -4 -16 -9z"/>
<path d="M4727 1218 c-15 -12 -22 -42 -19 -79 3 -28 75 -40 159 -27 71 11 73
12 73 40 0 16 -7 40 -16 53 -15 23 -22 25 -98 25 -50 0 -89 -5 -99 -12z"/>
<path d="M5575 1220 c-3 -5 1 -10 10 -10 9 0 13 5 10 10 -3 6 -8 10 -10 10 -2
0 -7 -4 -10 -10z"/>
<path d="M4160 292 c0 -6 15 -14 33 -17 17 -4 37 -10 42 -14 30 -18 316 -35
625 -35 338 -1 425 6 513 40 20 8 52 14 69 14 24 0 29 3 20 12 -8 8 -40 8
-129 0 -126 -12 -913 -10 -1080 3 -63 5 -93 4 -93 -3z"/>
</g>
</svg>
